<svg id="Layer_1" data-name="Layer 1" xmlns="http://www.w3.org/2000/svg" viewBox="0 0 330.11 58.91"><defs><style>.cls-1{fill:#838bc5;}.cls-1,.cls-4{stroke:#000;}.cls-1,.cls-2,.cls-3,.cls-4{stroke-miterlimit:10;}.cls-2,.cls-3{font-size:17.32px;fill:#fff;stroke:#fff;}.cls-2,.cls-3,.cls-5{font-family:Helvetica, Helvetica;}.cls-2{letter-spacing:-0.05em;}.cls-4{fill:none;}.cls-5{font-size:12px;}</style></defs><title>distance</title><circle class="cls-1" cx="29.46" cy="29.46" r="28.96"/><circle class="cls-1" cx="165.06" cy="29.46" r="28.96"/><circle class="cls-1" cx="300.66" cy="29.46" r="28.96"/><text class="cls-2" transform="translate(23.21 35.94) scale(1.16 1)">A</text><text class="cls-3" transform="translate(159.55 36.94) scale(1.16 1)">B</text><text class="cls-3" transform="translate(293.89 36.94) scale(1.16 1)">C</text><line x1="58.41" y1="31.84" x2="136.1" y2="32.27"/><line class="cls-4" x1="58.41" y1="31.84" x2="130.07" y2="32.23"/><path d="M654.06,386.87a30.38,30.38,0,0,0-8.58,4.71l1.75-4.74-1.7-4.77A30,30,0,0,0,654.06,386.87Z" transform="translate(-517.95 -354.61)"/><line x1="194.01" y1="31.84" x2="271.7" y2="32.27"/><line class="cls-4" x1="194.01" y1="31.84" x2="265.67" y2="32.23"/><path d="M789.66,386.87a30.38,30.38,0,0,0-8.58,4.71l1.75-4.74-1.7-4.77A30,30,0,0,0,789.66,386.87Z" transform="translate(-517.95 -354.61)"/><text class="cls-5" transform="translate(86.26 13.95)">d</text><text class="cls-5" transform="translate(92.93 17.95) scale(0.58)">1</text><text class="cls-5" transform="translate(224.65 13.95)">d</text><text class="cls-5" transform="translate(231.33 17.95) scale(0.58)">2</text></svg>